# This file uses centimeters as units for non-parametric coordinates.

mtllib pizza.mtl
g default
v 0.475529 -0.020000 -0.154509
v 0.404509 -0.020000 -0.293893
v 0.293893 -0.020000 -0.404509
v 0.154509 -0.020000 -0.475529
v 0.000000 -0.020000 -0.500000
v -0.154509 -0.020000 -0.475528
v -0.293893 -0.020000 -0.404509
v -0.404509 -0.020000 -0.293893
v -0.475528 -0.020000 -0.154509
v -0.500000 -0.020000 0.000000
v -0.475528 -0.020000 0.154509
v -0.404509 -0.020000 0.293893
v -0.293893 -0.020000 0.404509
v -0.154509 -0.020000 0.475528
v -0.000000 -0.020000 0.500000
v 0.154508 -0.020000 0.475528
v 0.293893 -0.020000 0.404509
v 0.404509 -0.020000 0.293893
v 0.475528 -0.020000 0.154509
v 0.500000 -0.020000 0.000000
v 0.475529 0.020000 -0.154509
v 0.404509 0.020000 -0.293893
v 0.293893 0.020000 -0.404509
v 0.154509 0.020000 -0.475529
v 0.000000 0.020000 -0.500000
v -0.154509 0.020000 -0.475528
v -0.293893 0.020000 -0.404509
v -0.404509 0.020000 -0.293893
v -0.475528 0.020000 -0.154509
v -0.500000 0.020000 0.000000
v -0.475528 0.020000 0.154509
v -0.404509 0.020000 0.293893
v -0.293893 0.020000 0.404509
v -0.154509 0.020000 0.475528
v -0.000000 0.020000 0.500000
v 0.154508 0.020000 0.475528
v 0.293893 0.020000 0.404509
v 0.404509 0.020000 0.293893
v 0.475528 0.020000 0.154509
v 0.500000 0.020000 0.000000
v 0.000000 -0.020000 0.000000
v 0.000000 0.020000 0.000000
vt 0.956939 0.931776
vt 0.969574 0.899808
vt 0.884973 0.864372
vt 0.937259 0.957145
vt 0.912461 0.973434
vt 0.884973 0.979046
vt 0.857484 0.973434
vt 0.832686 0.957145
vt 0.813006 0.931776
vt 0.800371 0.899808
vt 0.796017 0.864372
vt 0.800371 0.828936
vt 0.813006 0.796968
vt 0.832686 0.771598
vt 0.857484 0.755310
vt 0.884973 0.749697
vt 0.912461 0.755310
vt 0.937259 0.771598
vt 0.956939 0.796968
vt 0.969574 0.828936
vt 0.228807 0.896395
vt 0.241968 0.896395
vt 0.241968 0.978306
vt 0.228807 0.978306
vt 0.255129 0.896395
vt 0.255129 0.978306
vt 0.268291 0.978306
vt 0.018228 0.896395
vt 0.018228 0.978306
vt 0.031389 0.896395
vt 0.031389 0.978306
vt 0.044551 0.896395
vt 0.044551 0.978306
vt 0.057712 0.896395
vt 0.057712 0.978306
vt 0.070873 0.896395
vt 0.070873 0.978306
vt 0.084034 0.896395
vt 0.084034 0.978306
vt 0.097195 0.896395
vt 0.097195 0.978306
vt 0.110357 0.896395
vt 0.110357 0.978306
vt 0.123518 0.896395
vt 0.123518 0.978306
vt 0.136679 0.896395
vt 0.136679 0.978306
vt 0.149840 0.896395
vt 0.149840 0.978306
vt 0.163001 0.896395
vt 0.163001 0.978306
vt 0.176162 0.896395
vt 0.176162 0.978306
vt 0.189324 0.896395
vt 0.189324 0.978306
vt 0.202485 0.896395
vt 0.202485 0.978306
vt 0.215646 0.896395
vt 0.215646 0.978306
vt 0.975529 0.654508
vt 0.973928 0.864372
vt 0.904509 0.793893
vt 0.500000 0.500000
vt 0.793893 0.904509
vt 0.654509 0.975528
vt 0.500000 1.000000
vt 0.345492 0.975528
vt 0.206107 0.904508
vt 0.095492 0.793893
vt 0.024472 0.654508
vt 0.000000 0.500000
vt 0.024472 0.345491
vt 0.095492 0.206107
vt 0.206107 0.095491
vt 0.345492 0.024472
vt 0.500000 -0.000000
vt 0.654509 0.024472
vt 0.793893 0.095491
vt 0.904509 0.206107
vt 0.975528 0.345491
vt 1.000000 0.500000
vt 0.268291 0.896395
vt 0.281452 0.896395
vt 0.281452 0.978306
vn 0.951057 0.000000 -0.309016
vn 0.809017 0.000000 -0.587785
vn 0.951057 0.000000 -0.309016
vn 0.809017 0.000000 -0.587785
vn 0.587785 0.000000 -0.809017
vn 0.587785 0.000000 -0.809017
vn 0.309017 0.000000 -0.951057
vn 0.309017 0.000000 -0.951057
vn 0.000000 0.000000 -1.000000
vn 0.000000 0.000000 -1.000000
vn -0.309017 0.000000 -0.951056
vn -0.309017 0.000000 -0.951057
vn -0.587786 0.000000 -0.809017
vn -0.587786 0.000000 -0.809017
vn -0.809017 0.000000 -0.587785
vn -0.809017 0.000000 -0.587785
vn -0.951057 0.000000 -0.309017
vn -0.951057 0.000000 -0.309017
vn -1.000000 0.000000 0.000000
vn -1.000000 0.000000 -0.000000
vn -0.951057 0.000000 0.309017
vn -0.951057 0.000000 0.309017
vn -0.809017 0.000000 0.587785
vn -0.809017 0.000000 0.587785
vn -0.587785 0.000000 0.809017
vn -0.587785 0.000000 0.809017
vn -0.309017 0.000000 0.951057
vn -0.309017 0.000000 0.951057
vn 0.000000 0.000000 1.000000
vn 0.000000 0.000000 1.000000
vn 0.309017 0.000000 0.951057
vn 0.309017 0.000000 0.951057
vn 0.587785 0.000000 0.809017
vn 0.587785 0.000000 0.809017
vn 0.809017 0.000000 0.587785
vn 0.809017 0.000000 0.587785
vn 0.951057 0.000000 0.309017
vn 0.951057 0.000000 0.309017
vn 1.000000 0.000000 0.000001
vn 1.000000 0.000000 0.000001
vn 0.000000 -1.000000 -0.000000
vn 0.000000 -1.000000 -0.000000
vn 0.000000 -1.000000 -0.000000
vn 0.000000 -1.000000 0.000000
vn 0.000000 -1.000000 -0.000000
vn 0.000000 -1.000000 0.000000
vn 0.000000 -1.000000 0.000000
vn 0.000000 -1.000000 0.000000
vn 0.000000 -1.000000 -0.000000
vn 0.000000 -1.000000 -0.000000
vn 0.000000 -1.000000 0.000000
vn 0.000000 -1.000000 0.000000
vn 0.000000 -1.000000 0.000000
vn 0.000000 -1.000000 0.000000
vn 0.000000 -1.000000 0.000000
vn 0.000000 -1.000000 -0.000000
vn 0.000000 -1.000000 -0.000000
vn 0.000000 -1.000000 0.000000
vn 0.000000 -1.000000 0.000000
vn 0.000000 -1.000000 0.000000
vn 0.000000 -1.000000 0.000000
vn 0.000000 1.000000 -0.000000
vn 0.000000 1.000000 -0.000000
vn 0.000000 1.000000 0.000000
vn 0.000000 1.000000 0.000000
vn 0.000000 1.000000 0.000000
vn 0.000000 1.000000 0.000000
vn 0.000000 1.000000 0.000000
vn 0.000000 1.000000 0.000000
vn 0.000000 1.000000 0.000000
vn 0.000000 1.000000 0.000000
vn 0.000000 1.000000 0.000000
vn 0.000000 1.000000 0.000000
vn 0.000000 1.000000 0.000000
vn 0.000000 1.000000 0.000000
vn 0.000000 1.000000 0.000000
vn 0.000000 1.000000 -0.000000
vn 0.000000 1.000000 -0.000000
vn 0.000000 1.000000 0.000000
vn 0.000000 1.000000 0.000000
vn 0.000000 1.000000 0.000000
vn 0.000000 1.000000 0.000000
s 1
g pCylinder1
usemtl lambert3SG
f 1/21/1 2/22/2 21/24/3
f 21/24/3 2/22/2 22/23/4
f 2/22/2 3/25/5 22/23/4
f 22/23/4 3/25/5 23/26/6
f 3/25/5 4/82/7 23/26/6
f 23/26/6 4/82/7 24/27/8
f 4/82/7 5/83/9 24/27/8
f 24/27/8 5/83/9 25/84/10
f 5/28/9 6/30/11 25/29/10
f 25/29/10 6/30/11 26/31/12
f 6/30/11 7/32/13 26/31/12
f 26/31/12 7/32/13 27/33/14
f 7/32/13 8/34/15 27/33/14
f 27/33/14 8/34/15 28/35/16
f 8/34/15 9/36/17 28/35/16
f 28/35/16 9/36/17 29/37/18
f 9/36/17 10/38/19 29/37/18
f 29/37/18 10/38/19 30/39/20
f 10/38/19 11/40/21 30/39/20
f 30/39/20 11/40/21 31/41/22
f 11/40/21 12/42/23 31/41/22
f 31/41/22 12/42/23 32/43/24
f 12/42/23 13/44/25 32/43/24
f 32/43/24 13/44/25 33/45/26
f 13/44/25 14/46/27 33/45/26
f 33/45/26 14/46/27 34/47/28
f 14/46/27 15/48/29 34/47/28
f 34/47/28 15/48/29 35/49/30
f 15/48/29 16/50/31 35/49/30
f 35/49/30 16/50/31 36/51/32
f 16/50/31 17/52/33 36/51/32
f 36/51/32 17/52/33 37/53/34
f 17/52/33 18/54/35 37/53/34
f 37/53/34 18/54/35 38/55/36
f 18/54/35 19/56/37 38/55/36
f 38/55/36 19/56/37 39/57/38
f 19/56/37 20/58/39 39/57/38
f 39/57/38 20/58/39 40/59/40
f 20/58/39 1/21/1 40/59/40
f 40/59/40 1/21/1 21/24/3
s 2
f 2/1/41 1/2/42 41/3/43
f 3/4/44 2/1/41 41/3/43
f 4/5/45 3/4/44 41/3/43
f 5/6/46 4/5/45 41/3/43
f 6/7/47 5/6/46 41/3/43
f 7/8/48 6/7/47 41/3/43
f 8/9/49 7/8/48 41/3/43
f 9/10/50 8/9/49 41/3/43
f 10/11/51 9/10/50 41/3/43
f 11/12/52 10/11/51 41/3/43
f 12/13/53 11/12/52 41/3/43
f 13/14/54 12/13/53 41/3/43
f 14/15/55 13/14/54 41/3/43
f 15/16/56 14/15/55 41/3/43
f 16/17/57 15/16/56 41/3/43
f 17/18/58 16/17/57 41/3/43
f 18/19/59 17/18/58 41/3/43
f 19/20/60 18/19/59 41/3/43
f 20/61/61 19/20/60 41/3/43
f 1/2/42 20/61/61 41/3/43
s 3
f 21/60/62 22/62/63 42/63/64
f 22/62/63 23/64/65 42/63/64
f 23/64/65 24/65/66 42/63/64
f 24/65/66 25/66/67 42/63/64
f 25/66/67 26/67/68 42/63/64
f 26/67/68 27/68/69 42/63/64
f 27/68/69 28/69/70 42/63/64
f 28/69/70 29/70/71 42/63/64
f 29/70/71 30/71/72 42/63/64
f 30/71/72 31/72/73 42/63/64
f 31/72/73 32/73/74 42/63/64
f 32/73/74 33/74/75 42/63/64
f 33/74/75 34/75/76 42/63/64
f 34/75/76 35/76/77 42/63/64
f 35/76/77 36/77/78 42/63/64
f 36/77/78 37/78/79 42/63/64
f 37/78/79 38/79/80 42/63/64
f 38/79/80 39/80/81 42/63/64
f 39/80/81 40/81/82 42/63/64
f 40/81/82 21/60/62 42/63/64
g default
v 0.498750 -0.020000 0.000000
v 0.474339 -0.020000 -0.154122
v 0.403497 -0.020000 -0.293158
v 0.293158 -0.020000 -0.403497
v 0.154122 -0.020000 -0.474339
v 0.000000 -0.020000 -0.498750
v -0.154122 -0.020000 -0.474339
v -0.293158 -0.020000 -0.403497
v -0.403497 -0.020000 -0.293158
v -0.474339 -0.020000 -0.154122
v -0.498750 -0.020000 0.000000
v -0.474339 -0.020000 0.154122
v -0.403497 -0.020000 0.293158
v -0.293158 -0.020000 0.403497
v -0.154122 -0.020000 0.474339
v 0.000000 -0.020000 0.498750
v 0.154122 -0.020000 0.474339
v 0.293158 -0.020000 0.403497
v 0.403497 -0.020000 0.293158
v 0.474339 -0.020000 0.154122
v 0.498750 0.030000 0.000000
v 0.474339 0.030000 -0.154122
v 0.403497 0.030000 -0.293158
v 0.293158 0.030000 -0.403497
v 0.154122 0.030000 -0.474339
v 0.000000 0.030000 -0.498750
v -0.154122 0.030000 -0.474339
v -0.293158 0.030000 -0.403497
v -0.403497 0.030000 -0.293158
v -0.474339 0.030000 -0.154122
v -0.498750 0.030000 0.000000
v -0.474339 0.030000 0.154122
v -0.403497 0.030000 0.293158
v -0.293158 0.030000 0.403497
v -0.154122 0.030000 0.474339
v 0.000000 0.030000 0.498750
v 0.154122 0.030000 0.474339
v 0.293158 0.030000 0.403497
v 0.403497 0.030000 0.293158
v 0.474339 0.030000 0.154122
v 0.525000 0.030000 0.000000
v 0.499305 0.030000 -0.162234
v 0.424734 0.030000 -0.308587
v 0.308587 0.030000 -0.424734
v 0.162234 0.030000 -0.499305
v -0.000000 0.030000 -0.525000
v -0.162234 0.030000 -0.499305
v -0.308587 0.030000 -0.424734
v -0.424734 0.030000 -0.308587
v -0.499305 0.030000 -0.162234
v -0.525000 0.030000 0.000000
v -0.499305 0.030000 0.162234
v -0.424734 0.030000 0.308587
v -0.308587 0.030000 0.424734
v -0.162234 0.030000 0.499305
v 0.000000 0.030000 0.525000
v 0.162234 0.030000 0.499305
v 0.308587 0.030000 0.424734
v 0.424734 0.030000 0.308587
v 0.499305 0.030000 0.162234
v 0.525000 -0.020000 0.000000
v 0.499305 -0.020000 -0.162234
v 0.424734 -0.020000 -0.308587
v 0.308587 -0.020000 -0.424734
v 0.162234 -0.020000 -0.499305
v -0.000000 -0.020000 -0.525000
v -0.162234 -0.020000 -0.499305
v -0.308587 -0.020000 -0.424734
v -0.424734 -0.020000 -0.308587
v -0.499305 -0.020000 -0.162234
v -0.525000 -0.020000 0.000000
v -0.499305 -0.020000 0.162234
v -0.424734 -0.020000 0.308587
v -0.308587 -0.020000 0.424734
v -0.162234 -0.020000 0.499305
v 0.000000 -0.020000 0.525000
v 0.162234 -0.020000 0.499305
v 0.308587 -0.020000 0.424734
v 0.424734 -0.020000 0.308587
v 0.499305 -0.020000 0.162234
vt 0.000000 1.000000
vt 0.050000 1.000000
vt 0.100000 1.000000
vt 0.150000 1.000000
vt 0.200000 1.000000
vt 0.250000 1.000000
vt 0.300000 1.000000
vt 0.350000 1.000000
vt 0.400000 1.000000
vt 0.450000 1.000000
vt 0.500000 1.000000
vt 0.550000 1.000000
vt 0.600000 1.000000
vt 0.650000 1.000000
vt 0.700000 1.000000
vt 0.750000 1.000000
vt 0.800000 1.000000
vt 0.850000 1.000000
vt 0.900000 1.000000
vt 0.950000 1.000000
vt 1.000000 1.000000
vt 0.000000 0.750000
vt 0.050000 0.750000
vt 0.100000 0.750000
vt 0.150000 0.750000
vt 0.200000 0.750000
vt 0.250000 0.750000
vt 0.300000 0.750000
vt 0.350000 0.750000
vt 0.400000 0.750000
vt 0.450000 0.750000
vt 0.500000 0.750000
vt 0.550000 0.750000
vt 0.600000 0.750000
vt 0.650000 0.750000
vt 0.700000 0.750000
vt 0.750000 0.750000
vt 0.800000 0.750000
vt 0.850000 0.750000
vt 0.900000 0.750000
vt 0.950000 0.750000
vt 1.000000 0.750000
vt 0.000000 0.500000
vt 0.050000 0.500000
vt 0.100000 0.500000
vt 0.150000 0.500000
vt 0.200000 0.500000
vt 0.250000 0.500000
vt 0.300000 0.500000
vt 0.350000 0.500000
vt 0.400000 0.500000
vt 0.450000 0.500000
vt 0.500000 0.500000
vt 0.550000 0.500000
vt 0.600000 0.500000
vt 0.650000 0.500000
vt 0.700000 0.500000
vt 0.750000 0.500000
vt 0.800000 0.500000
vt 0.850000 0.500000
vt 0.900000 0.500000
vt 0.950000 0.500000
vt 1.000000 0.500000
vt 0.000000 0.250000
vt 0.050000 0.250000
vt 0.100000 0.250000
vt 0.150000 0.250000
vt 0.200000 0.250000
vt 0.250000 0.250000
vt 0.300000 0.250000
vt 0.350000 0.250000
vt 0.400000 0.250000
vt 0.450000 0.250000
vt 0.500000 0.250000
vt 0.550000 0.250000
vt 0.600000 0.250000
vt 0.650000 0.250000
vt 0.700000 0.250000
vt 0.750000 0.250000
vt 0.800000 0.250000
vt 0.850000 0.250000
vt 0.900000 0.250000
vt 0.950000 0.250000
vt 1.000000 0.250000
vt 0.000000 0.000000
vt 0.050000 0.000000
vt 0.100000 0.000000
vt 0.150000 0.000000
vt 0.200000 0.000000
vt 0.250000 0.000000
vt 0.300000 0.000000
vt 0.350000 0.000000
vt 0.400000 0.000000
vt 0.450000 0.000000
vt 0.500000 0.000000
vt 0.550000 0.000000
vt 0.600000 0.000000
vt 0.650000 0.000000
vt 0.700000 0.000000
vt 0.750000 0.000000
vt 0.800000 0.000000
vt 0.850000 0.000000
vt 0.900000 0.000000
vt 0.950000 0.000000
vt 1.000000 0.000000
vn -0.951057 0.000000 0.309017
vn -1.000000 0.000000 0.000000
vn -0.951057 0.000000 0.309017
vn -1.000000 0.000000 0.000000
vn -0.809017 0.000000 0.587785
vn -0.809017 0.000000 0.587785
vn -0.587785 0.000000 0.809017
vn -0.587785 0.000000 0.809017
vn -0.309017 0.000000 0.951057
vn -0.309017 0.000000 0.951057
vn -0.000000 0.000000 1.000000
vn -0.000000 0.000000 1.000000
vn 0.309017 0.000000 0.951057
vn 0.309017 0.000000 0.951057
vn 0.587785 0.000000 0.809017
vn 0.587785 0.000000 0.809017
vn 0.809017 0.000000 0.587785
vn 0.809017 0.000000 0.587785
vn 0.951057 0.000000 0.309017
vn 0.951057 0.000000 0.309017
vn 1.000000 0.000000 0.000000
vn 1.000000 0.000000 0.000000
vn 0.951057 0.000000 -0.309017
vn 0.951057 0.000000 -0.309017
vn 0.809017 0.000000 -0.587785
vn 0.809017 0.000000 -0.587785
vn 0.587785 0.000000 -0.809017
vn 0.587785 0.000000 -0.809017
vn 0.309017 0.000000 -0.951057
vn 0.309017 0.000000 -0.951057
vn 0.000000 0.000000 -1.000000
vn 0.000000 0.000000 -1.000000
vn -0.309017 0.000000 -0.951057
vn -0.309017 0.000000 -0.951057
vn -0.587785 0.000000 -0.809017
vn -0.587785 0.000000 -0.809017
vn -0.809017 0.000000 -0.587785
vn -0.809017 0.000000 -0.587785
vn -0.951057 0.000000 -0.309017
vn -0.951057 0.000000 -0.309017
vn 0.000000 1.000000 -0.000000
vn 0.000000 1.000000 0.000000
vn 0.000000 1.000000 -0.000000
vn 0.000000 1.000000 -0.000000
vn 0.000000 1.000000 0.000000
vn 0.000000 1.000000 0.000000
vn 0.000000 1.000000 -0.000000
vn 0.000000 1.000000 -0.000000
vn 0.000000 1.000000 0.000000
vn 0.000000 1.000000 0.000000
vn 0.000000 1.000000 -0.000000
vn 0.000000 1.000000 -0.000000
vn 0.000000 1.000000 -0.000000
vn 0.000000 1.000000 -0.000000
vn 0.000000 1.000000 0.000000
vn 0.000000 1.000000 0.000000
vn 0.000000 1.000000 -0.000000
vn 0.000000 1.000000 -0.000000
vn 0.000000 1.000000 0.000000
vn 0.000000 1.000000 0.000000
vn 0.000000 1.000000 0.000000
vn 0.000000 1.000000 0.000000
vn 0.000000 1.000000 0.000000
vn 0.000000 1.000000 0.000000
vn 0.000000 1.000000 0.000000
vn 0.000000 1.000000 0.000000
vn 0.000000 1.000000 0.000000
vn 0.000000 1.000000 0.000000
vn 0.000000 1.000000 -0.000000
vn 0.000000 1.000000 -0.000000
vn 0.000000 1.000000 0.000000
vn 0.000000 1.000000 0.000000
vn 0.000000 1.000000 0.000000
vn 0.000000 1.000000 0.000000
vn 0.000000 1.000000 -0.000000
vn 0.000000 1.000000 -0.000000
vn 0.000000 1.000000 0.000000
vn 0.000000 1.000000 0.000000
vn 0.000000 1.000000 0.000000
vn 0.000000 1.000000 0.000000
vn 0.951057 0.000000 -0.309017
vn 1.000000 0.000000 -0.000001
vn 0.951057 0.000000 -0.309017
vn 1.000000 0.000000 -0.000001
vn 0.809017 0.000000 -0.587785
vn 0.809017 0.000000 -0.587785
vn 0.587785 0.000000 -0.809017
vn 0.587785 0.000000 -0.809017
vn 0.309017 0.000000 -0.951057
vn 0.309017 0.000000 -0.951057
vn 0.000000 0.000000 -1.000000
vn 0.000000 0.000000 -1.000000
vn -0.309017 0.000000 -0.951057
vn -0.309017 0.000000 -0.951057
vn -0.587785 0.000000 -0.809017
vn -0.587785 0.000000 -0.809017
vn -0.809017 0.000000 -0.587785
vn -0.809017 0.000000 -0.587785
vn -0.951057 0.000000 -0.309017
vn -0.951057 0.000000 -0.309017
vn -1.000000 0.000000 0.000000
vn -1.000000 0.000000 0.000000
vn -0.951057 0.000000 0.309017
vn -0.951057 0.000000 0.309017
vn -0.809017 0.000000 0.587785
vn -0.809017 0.000000 0.587785
vn -0.587786 0.000000 0.809017
vn -0.587786 0.000000 0.809017
vn -0.309017 0.000000 0.951057
vn -0.309017 0.000000 0.951057
vn -0.000000 0.000000 1.000000
vn 0.000000 0.000000 1.000000
vn 0.309017 0.000000 0.951057
vn 0.309017 0.000000 0.951057
vn 0.587785 0.000000 0.809017
vn 0.587785 0.000000 0.809017
vn 0.809017 0.000000 0.587785
vn 0.809017 0.000000 0.587785
vn 0.951057 0.000000 0.309016
vn 0.951057 0.000000 0.309016
vn 0.000000 -1.000000 -0.000000
vn 0.000000 -1.000000 0.000000
vn 0.000000 -1.000000 0.000000
vn 0.000000 -1.000000 -0.000000
vn 0.000000 -1.000000 -0.000000
vn 0.000000 -1.000000 -0.000000
vn 0.000000 -1.000000 0.000000
vn 0.000000 -1.000000 0.000000
vn 0.000000 -1.000000 0.000000
vn 0.000000 -1.000000 0.000000
vn 0.000000 -1.000000 -0.000000
vn 0.000000 -1.000000 -0.000000
vn 0.000000 -1.000000 0.000000
vn 0.000000 -1.000000 0.000000
vn 0.000000 -1.000000 -0.000000
vn 0.000000 -1.000000 -0.000000
vn 0.000000 -1.000000 -0.000000
vn 0.000000 -1.000000 -0.000000
vn 0.000000 -1.000000 0.000000
vn 0.000000 -1.000000 -0.000000
vn 0.000000 -1.000000 0.000000
vn 0.000000 -1.000000 0.000000
vn 0.000000 -1.000000 -0.000000
vn 0.000000 -1.000000 -0.000000
vn 0.000000 -1.000000 0.000000
vn 0.000000 -1.000000 0.000000
vn 0.000000 -1.000000 -0.000000
vn 0.000000 -1.000000 -0.000000
vn 0.000000 -1.000000 0.000000
vn 0.000000 -1.000000 0.000000
vn 0.000000 -1.000000 -0.000000
vn 0.000000 -1.000000 0.000000
vn 0.000000 -1.000000 -0.000000
vn 0.000000 -1.000000 -0.000000
vn 0.000000 -1.000000 0.000000
vn 0.000000 -1.000000 0.000000
vn 0.000000 -1.000000 0.000000
vn 0.000000 -1.000000 0.000000
vn 0.000000 -1.000000 -0.000000
vn 0.000000 -1.000000 -0.000000
s 1
g pPipe1
usemtl lambert2SG
f 44/86/83 43/85/84 64/107/85
f 64/107/85 43/85/84 63/106/86
f 45/87/87 44/86/83 65/108/88
f 65/108/88 44/86/83 64/107/85
f 46/88/89 45/87/87 66/109/90
f 66/109/90 45/87/87 65/108/88
f 47/89/91 46/88/89 67/110/92
f 67/110/92 46/88/89 66/109/90
f 48/90/93 47/89/91 68/111/94
f 68/111/94 47/89/91 67/110/92
f 49/91/95 48/90/93 69/112/96
f 69/112/96 48/90/93 68/111/94
f 50/92/97 49/91/95 70/113/98
f 70/113/98 49/91/95 69/112/96
f 51/93/99 50/92/97 71/114/100
f 71/114/100 50/92/97 70/113/98
f 52/94/101 51/93/99 72/115/102
f 72/115/102 51/93/99 71/114/100
f 53/95/103 52/94/101 73/116/104
f 73/116/104 52/94/101 72/115/102
f 54/96/105 53/95/103 74/117/106
f 74/117/106 53/95/103 73/116/104
f 55/97/107 54/96/105 75/118/108
f 75/118/108 54/96/105 74/117/106
f 56/98/109 55/97/107 76/119/110
f 76/119/110 55/97/107 75/118/108
f 57/99/111 56/98/109 77/120/112
f 77/120/112 56/98/109 76/119/110
f 58/100/113 57/99/111 78/121/114
f 78/121/114 57/99/111 77/120/112
f 59/101/115 58/100/113 79/122/116
f 79/122/116 58/100/113 78/121/114
f 60/102/117 59/101/115 80/123/118
f 80/123/118 59/101/115 79/122/116
f 61/103/119 60/102/117 81/124/120
f 81/124/120 60/102/117 80/123/118
f 62/104/121 61/103/119 82/125/122
f 82/125/122 61/103/119 81/124/120
f 43/105/84 62/104/121 63/126/86
f 63/126/86 62/104/121 82/125/122
s 2
f 64/107/123 63/106/124 84/128/125
f 84/128/125 63/106/124 83/127/126
f 65/108/127 64/107/123 85/129/128
f 85/129/128 64/107/123 84/128/125
f 66/109/129 65/108/127 86/130/130
f 86/130/130 65/108/127 85/129/128
f 67/110/131 66/109/129 87/131/132
f 87/131/132 66/109/129 86/130/130
f 68/111/133 67/110/131 88/132/134
f 88/132/134 67/110/131 87/131/132
f 69/112/135 68/111/133 89/133/136
f 89/133/136 68/111/133 88/132/134
f 70/113/137 69/112/135 90/134/138
f 90/134/138 69/112/135 89/133/136
f 71/114/139 70/113/137 91/135/140
f 91/135/140 70/113/137 90/134/138
f 72/115/141 71/114/139 92/136/142
f 92/136/142 71/114/139 91/135/140
f 73/116/143 72/115/141 93/137/144
f 93/137/144 72/115/141 92/136/142
f 74/117/145 73/116/143 94/138/146
f 94/138/146 73/116/143 93/137/144
f 75/118/147 74/117/145 95/139/148
f 95/139/148 74/117/145 94/138/146
f 76/119/149 75/118/147 96/140/150
f 96/140/150 75/118/147 95/139/148
f 77/120/151 76/119/149 97/141/152
f 97/141/152 76/119/149 96/140/150
f 78/121/153 77/120/151 98/142/154
f 98/142/154 77/120/151 97/141/152
f 79/122/155 78/121/153 99/143/156
f 99/143/156 78/121/153 98/142/154
f 80/123/157 79/122/155 100/144/158
f 100/144/158 79/122/155 99/143/156
f 81/124/159 80/123/157 101/145/160
f 101/145/160 80/123/157 100/144/158
f 82/125/161 81/124/159 102/146/162
f 102/146/162 81/124/159 101/145/160
f 63/126/124 82/125/161 83/147/126
f 83/147/126 82/125/161 102/146/162
s 3
f 84/128/163 83/127/164 104/149/165
f 104/149/165 83/127/164 103/148/166
f 85/129/167 84/128/163 105/150/168
f 105/150/168 84/128/163 104/149/165
f 86/130/169 85/129/167 106/151/170
f 106/151/170 85/129/167 105/150/168
f 87/131/171 86/130/169 107/152/172
f 107/152/172 86/130/169 106/151/170
f 88/132/173 87/131/171 108/153/174
f 108/153/174 87/131/171 107/152/172
f 89/133/175 88/132/173 109/154/176
f 109/154/176 88/132/173 108/153/174
f 90/134/177 89/133/175 110/155/178
f 110/155/178 89/133/175 109/154/176
f 91/135/179 90/134/177 111/156/180
f 111/156/180 90/134/177 110/155/178
f 92/136/181 91/135/179 112/157/182
f 112/157/182 91/135/179 111/156/180
f 93/137/183 92/136/181 113/158/184
f 113/158/184 92/136/181 112/157/182
f 94/138/185 93/137/183 114/159/186
f 114/159/186 93/137/183 113/158/184
f 95/139/187 94/138/185 115/160/188
f 115/160/188 94/138/185 114/159/186
f 96/140/189 95/139/187 116/161/190
f 116/161/190 95/139/187 115/160/188
f 97/141/191 96/140/189 117/162/192
f 117/162/192 96/140/189 116/161/190
f 98/142/193 97/141/191 118/163/194
f 118/163/194 97/141/191 117/162/192
f 99/143/195 98/142/193 119/164/196
f 119/164/196 98/142/193 118/163/194
f 100/144/197 99/143/195 120/165/198
f 120/165/198 99/143/195 119/164/196
f 101/145/199 100/144/197 121/166/200
f 121/166/200 100/144/197 120/165/198
f 102/146/201 101/145/199 122/167/202
f 122/167/202 101/145/199 121/166/200
f 83/147/164 102/146/201 103/168/166
f 103/168/166 102/146/201 122/167/202
s 4
f 104/149/203 103/148/204 44/170/205
f 44/170/205 103/148/204 43/169/206
f 105/150/207 104/149/203 45/171/208
f 45/171/208 104/149/203 44/170/205
f 106/151/209 105/150/207 46/172/210
f 46/172/210 105/150/207 45/171/208
f 107/152/211 106/151/209 47/173/212
f 47/173/212 106/151/209 46/172/210
f 108/153/213 107/152/211 48/174/214
f 48/174/214 107/152/211 47/173/212
f 109/154/215 108/153/213 49/175/216
f 49/175/216 108/153/213 48/174/214
f 110/155/217 109/154/215 50/176/218
f 50/176/218 109/154/215 49/175/216
f 111/156/219 110/155/217 51/177/220
f 51/177/220 110/155/217 50/176/218
f 112/157/221 111/156/219 52/178/222
f 52/178/222 111/156/219 51/177/220
f 113/158/223 112/157/221 53/179/224
f 53/179/224 112/157/221 52/178/222
f 114/159/225 113/158/223 54/180/226
f 54/180/226 113/158/223 53/179/224
f 115/160/227 114/159/225 55/181/228
f 55/181/228 114/159/225 54/180/226
f 116/161/229 115/160/227 56/182/230
f 56/182/230 115/160/227 55/181/228
f 117/162/231 116/161/229 57/183/232
f 57/183/232 116/161/229 56/182/230
f 118/163/233 117/162/231 58/184/234
f 58/184/234 117/162/231 57/183/232
f 119/164/235 118/163/233 59/185/236
f 59/185/236 118/163/233 58/184/234
f 120/165/237 119/164/235 60/186/238
f 60/186/238 119/164/235 59/185/236
f 121/166/239 120/165/237 61/187/240
f 61/187/240 120/165/237 60/186/238
f 122/167/241 121/166/239 62/188/242
f 62/188/242 121/166/239 61/187/240
f 103/168/204 122/167/241 43/189/206
f 43/189/206 122/167/241 62/188/242
