# This file uses centimeters as units for non-parametric coordinates.

mtllib smoke.mtl
g default
v 0.168125 0.723223 -0.304627
v 0.000000 0.650000 -0.250000
v 0.000000 0.822746 -0.487764
v 0.054627 0.723223 -0.081875
v -0.237764 0.822746 -0.250000
v -0.192355 0.977254 -0.110246
v 0.234837 0.939109 -0.326303
v -0.139754 0.977254 -0.442355
v 0.168125 1.076777 -0.304627
v 0.073473 0.977254 -0.023873
v -0.045409 1.137764 -0.312500
v 0.000000 1.150000 -0.250000
v -0.139754 0.447746 -0.195409
v 0.086373 0.447746 -0.031118
v 0.139754 0.447746 -0.195409
v 0.073473 0.727254 -0.376127
v -0.192355 0.727254 -0.289754
v -0.139754 0.572746 0.042355
v 0.237764 0.650000 -0.227254
v -0.045409 0.852254 -0.010246
v 0.192355 0.727254 -0.010246
v 0.168125 0.826777 -0.204627
v 0.000000 0.900000 -0.150000
v 0.000000 0.400000 -0.150000
v 0.342355 0.253054 -0.162500
v 0.095373 0.223223 -0.268125
v -0.026777 0.223223 -0.100000
v 0.387764 0.400000 -0.177254
v 0.010246 0.477254 0.092355
v 0.223473 0.322746 0.126127
v 0.010246 0.477254 -0.292355
v 0.289754 0.477254 -0.292355
v 0.010246 0.602254 -0.054591
v 0.150000 0.650000 -0.100000
v 0.289754 0.602254 -0.145409
v 0.150000 0.150000 -0.100000
v 0.368125 0.673223 -0.304627
v 0.200000 0.600000 -0.250000
v 0.339754 0.647746 -0.204591
v 0.200000 0.772746 -0.012236
v 0.036373 0.703054 -0.368882
v 0.200000 0.772746 -0.487764
v 0.007645 0.927254 -0.110246
v 0.434837 0.810891 -0.326303
v 0.392355 0.996946 -0.312500
v 0.023223 1.026777 -0.250000
v 0.392355 0.996946 -0.187500
v 0.200000 1.100000 -0.250000
v 0.100000 0.400000 -0.175000
v 0.054591 0.447746 -0.314754
v 0.186373 0.447746 -0.056118
v 0.334837 0.610891 -0.251303
v 0.239754 0.727254 -0.367355
v -0.092355 0.572746 -0.035246
v -0.092355 0.727254 -0.314754
v 0.026527 0.727254 0.051127
v 0.218882 0.852254 -0.088627
v 0.268125 0.826777 -0.229627
v 0.100000 0.900000 -0.175000
v 0.268125 0.873223 -0.379627
v 0.100000 0.800000 -0.325000
v 0.186373 0.847746 -0.206118
v 0.026527 0.972746 -0.098873
v 0.173473 1.127254 -0.551127
v -0.039754 0.972746 -0.517355
v -0.126127 0.972746 -0.251527
v 0.337764 1.050000 -0.402254
v 0.186373 1.252254 -0.206118
v 0.292355 1.196946 -0.387500
v 0.100000 1.300000 -0.325000
v 0.111850 0.236502 -0.068834
v -0.100000 0.100000 0.000000
v -0.013627 0.147746 0.118882
v -0.239754 0.272746 -0.192355
v -0.337764 0.427254 0.000000
v -0.176303 0.389109 0.234837
v 0.134837 0.389109 -0.076303
v -0.054591 0.552254 -0.139754
v -0.013627 0.552254 0.118882
v -0.100000 0.600000 0.000000
v -0.150000 0.300000 -0.150000
v -0.010246 0.347746 -0.195409
v -0.076527 0.627254 -0.376127
v -0.376127 0.472746 -0.223473
v -0.289754 0.627254 0.042355
v 0.042355 0.627254 -0.010246
v 0.087764 0.550000 -0.227254
v 0.018125 0.726777 -0.204627
v -0.150000 0.800000 -0.150000
v 0.000000 0.000000 0.000000
v 0.139754 0.047746 -0.045409
v -0.118882 0.103054 -0.163627
v -0.246922 0.210891 0.000000
v 0.237764 0.250000 -0.077254
v -0.000000 0.172746 0.237764
v 0.192355 0.327254 0.139754
v 0.045409 0.452254 -0.139754
v 0.168125 0.426777 -0.054627
v -0.139754 0.452254 0.045409
v 0.000000 0.500000 0.000000
vt 0.000000 0.250000
vt 0.225000 0.000000
vt 0.775000 0.000000
vt 1.000000 0.250000
vt 0.200000 0.400000
vt 0.750000 0.250000
vt 0.450000 0.400000
vt 0.550000 0.600000
vt 1.000000 0.550000
vt 0.300000 0.600000
vt 0.000000 0.550000
vt 0.000000 0.750000
vt 0.750000 0.600000
vt 0.300000 0.900000
vt 0.975000 1.000000
vt 1.000000 0.750000
vt 0.275000 1.000000
vt 0.975000 0.000000
vt 0.400000 0.200000
vt 0.800000 0.200000
vt 0.000000 0.200000
vt 1.000000 0.200000
vt 0.150000 0.600000
vt 0.350000 0.600000
vt 0.600000 0.400000
vt 0.000000 0.500000
vt 1.000000 0.500000
vt 0.650000 0.800000
vt 0.850000 0.600000
vt 0.000000 0.750000
vt 1.000000 0.750000
vt 0.375000 1.000000
vt 0.975000 1.000000
vt 0.375000 0.000000
vt 0.775000 0.000000
vt 0.975000 0.000000
vt 0.000000 0.300000
vt 0.250000 0.250000
vt 1.000000 0.300000
vt 0.450000 0.250000
vt 0.000000 0.500000
vt 0.600000 0.600000
vt 0.750000 0.400000
vt 0.300000 0.600000
vt 1.000000 0.500000
vt 0.100000 0.600000
vt 0.500000 0.800000
vt 0.000000 0.800000
vt 0.975000 1.000000
vt 1.000000 0.800000
vt 0.225000 1.000000
vt 0.375000 0.000000
vt 0.625000 0.000000
vt 0.975000 0.000000
vt 0.000000 0.250000
vt 0.775000 0.000000
vt 0.900000 0.200000
vt 1.000000 0.250000
vt 0.700000 0.400000
vt 0.350000 0.300000
vt 0.200000 0.400000
vt 0.550000 0.600000
vt 0.000000 0.450000
vt 1.000000 0.450000
vt 0.000000 0.700000
vt 0.450000 0.750000
vt 0.900000 0.700000
vt 1.000000 0.700000
vt 0.975000 1.000000
vt 0.425000 1.000000
vt 0.975000 0.000000
vt 0.025000 0.000000
vt 0.250000 0.200000
vt 0.675000 0.000000
vt 0.800000 0.200000
vt 0.875000 0.000000
vt 0.000000 0.450000
vt 0.100000 0.600000
vt 0.550000 0.400000
vt 1.000000 0.450000
vt 0.350000 0.600000
vt 0.650000 0.600000
vt 0.850000 0.800000
vt 0.000000 0.750000
vt 1.000000 0.750000
vt 0.475000 1.000000
vt 0.875000 1.000000
vt 0.000000 0.250000
vt 0.475000 0.000000
vt 0.800000 0.200000
vt 1.000000 0.250000
vt 0.650000 0.400000
vt 0.150000 0.600000
vt 0.300000 0.400000
vt 0.500000 0.400000
vt 0.000000 0.500000
vt 1.000000 0.500000
vt 0.800000 0.800000
vt 0.000000 0.700000
vt 1.000000 0.700000
vt 0.425000 1.000000
vt 0.975000 1.000000
vt 0.775000 0.000000
vt 0.975000 0.000000
vt 0.000000 0.350000
vt 0.375000 0.000000
vt 0.575000 0.000000
vt 0.800000 0.200000
vt 1.000000 0.350000
vt 0.300000 0.400000
vt 0.450000 0.600000
vt 0.650000 0.550000
vt 1.000000 0.550000
vt 0.000000 0.550000
vt 0.150000 0.800000
vt 0.800000 0.800000
vt 0.125000 1.000000
vt 0.575000 1.000000
vt 0.775000 1.000000
vt 0.975000 1.000000
vt 0.975000 0.000000
vt 0.000000 0.200000
vt 1.000000 0.200000
vt 0.150000 0.600000
vt 0.400000 0.400000
vt 0.600000 0.600000
vt 0.850000 0.600000
vt 0.000000 0.500000
vt 1.000000 0.500000
vt 0.000000 0.750000
vt 0.975000 1.000000
vt 1.000000 0.750000
vt 0.375000 1.000000
vt 0.625000 0.000000
vt 0.975000 0.000000
vt 0.675000 0.000000
vt 0.000000 0.200000
vt 1.000000 0.200000
vt 0.300000 0.300000
vt 0.450000 0.450000
vt 0.000000 0.500000
vt 0.700000 0.400000
vt 0.850000 0.600000
vt 1.000000 0.500000
vt 0.150000 0.800000
vt 0.000000 0.750000
vt 0.500000 0.800000
vt 1.000000 0.750000
vt 0.475000 1.000000
vt 0.975000 1.000000
vt 0.125000 1.000000
vt 0.975000 0.000000
vn 0.726427 -0.652003 -0.217245
vn -0.121940 -0.991745 -0.039649
vn -0.081408 -0.260919 -0.961922
vn -0.894520 -0.435767 -0.099704
vn -0.758141 0.248016 0.603085
vn 0.285853 -0.660833 0.693965
vn 0.977406 0.135840 -0.161940
vn -0.566900 0.235334 -0.789457
vn 0.516490 0.584173 -0.626083
vn 0.427155 0.302298 0.852147
vn -0.414359 0.773917 -0.478915
vn 0.241563 0.882168 0.404262
vn 0.382512 -0.458843 0.801965
vn -0.213101 -0.888406 -0.406599
vn 0.504619 -0.689416 -0.519677
vn -0.010343 0.014312 -0.999844
vn -0.864862 0.211173 -0.455433
vn -0.765318 -0.578337 -0.282516
vn -0.535314 0.035068 0.843925
vn 0.941008 -0.175955 -0.289039
vn -0.254019 0.493540 0.831801
vn 0.562894 0.071454 0.823435
vn 0.633709 0.745665 -0.205905
vn -0.353344 0.935419 0.011783
vn 0.781679 -0.612336 -0.118420
vn 0.028473 -0.944736 0.326593
vn -0.194801 -0.524586 -0.828771
vn -0.855429 -0.472478 0.212147
vn 0.999860 0.008582 -0.014349
vn -0.498784 0.192498 0.845079
vn 0.229990 -0.239974 0.943142
vn -0.642203 0.329393 -0.692152
vn 0.353552 0.187746 -0.916380
vn -0.751028 0.656944 -0.066191
vn 0.526700 0.841247 0.122028
vn 0.313502 0.735385 0.600771
vn -0.397097 -0.906293 0.144729
vn 0.668153 -0.646505 -0.368243
vn 0.691237 -0.481370 0.538956
vn 0.000823 -0.189050 0.981967
vn -0.809958 -0.480708 -0.335988
vn -0.116221 -0.063259 -0.991207
vn -0.699882 0.120978 0.703939
vn 0.892168 -0.116550 -0.436409
vn 0.437931 0.581366 -0.685733
vn 0.551088 0.433969 0.712722
vn -0.704838 0.560962 -0.434195
vn -0.044416 0.995270 -0.086399
vn 0.938292 -0.340017 -0.063222
vn 0.029494 -0.993825 -0.106964
vn 0.194507 0.147471 -0.969752
vn -0.277146 -0.614442 -0.738682
vn -0.882883 -0.182669 0.432608
vn 0.534639 -0.491763 0.687263
vn -0.801423 0.288780 -0.523764
vn -0.121965 0.251726 0.960083
vn 0.615981 0.370249 0.695329
vn 0.723370 0.653502 -0.222870
vn -0.415331 0.904231 -0.099334
vn -0.191492 -0.007353 0.981467
vn -0.248357 -0.951884 -0.179542
vn 0.578565 -0.375150 0.724241
vn 0.565893 -0.650948 -0.505997
vn -0.667086 -0.081320 -0.740530
vn -0.989294 0.013479 0.145314
vn -0.001856 0.236977 -0.971513
vn 0.993287 -0.073744 0.089118
vn 0.284248 0.493055 0.822253
vn 0.717938 0.652540 -0.242397
vn -0.529784 0.844767 -0.075483
vn 0.456519 -0.485166 0.745791
vn -0.353441 -0.930692 -0.094295
vn 0.616005 -0.387816 -0.685665
vn -0.402630 -0.301034 -0.864447
vn -0.985156 0.166737 0.040815
vn -0.348632 -0.057346 0.935504
vn 0.984737 0.132188 0.113220
vn 0.117873 0.488061 -0.864814
vn 0.612213 0.460060 0.643071
vn -0.256063 0.964664 -0.062098
vn 0.544471 -0.819911 -0.176909
vn -0.165989 -0.969482 0.180422
vn -0.179281 0.169140 -0.969149
vn -0.879143 -0.265651 -0.395649
vn 0.469468 0.003613 0.882942
vn -0.513814 0.097167 0.852381
vn 0.936615 -0.173609 -0.304324
vn 0.633709 0.745665 -0.205904
vn -0.391378 0.919167 -0.044215
vn -0.345944 -0.333371 -0.877033
vn 0.068805 -0.994199 0.082672
vn -0.997593 -0.044996 0.052761
vn 0.624864 -0.736636 0.258676
vn 0.760327 -0.120553 -0.638255
vn -0.059038 -0.258642 0.964168
vn 0.589810 0.212939 0.778962
vn 0.667154 0.499830 -0.552337
vn -0.026600 0.322712 -0.946123
vn -0.691584 0.636889 0.340712
vn 0.052712 0.931452 0.360026
s 1
g pSphere11
usemtl lambert2SG
f 1/1/1 2/2/2 3/5/3
f 5/7/4 2/3/2 6/8/5
f 4/6/6 2/18/2 7/9/7
f 2/18/2 1/4/1 7/9/7
f 3/5/3 2/3/2 8/10/8
f 1/1/1 3/5/3 7/11/7
f 2/3/2 5/7/4 8/10/8
f 2/3/2 4/6/6 6/8/5
f 7/11/7 3/5/3 9/12/9
f 6/8/5 4/6/6 10/13/10
f 3/5/3 8/10/8 9/12/9
f 4/6/6 7/9/7 10/13/10
f 8/10/8 5/7/4 11/14/11
f 6/8/5 10/13/10 12/15/12
f 5/7/4 6/8/5 11/14/11
f 9/12/9 8/10/8 11/14/11
f 11/14/11 6/8/5 12/15/12
f 10/13/10 7/9/7 12/15/12
f 12/15/12 7/9/7 9/16/9
f 9/12/9 11/14/11 12/17/12
s 3
f 14/20/13 24/36/14 15/22/15
f 15/21/15 24/34/14 16/23/16
f 16/23/16 24/34/14 17/24/17
f 24/34/14 13/19/18 17/24/17
f 13/19/18 24/35/14 18/25/19
f 24/35/14 14/20/13 18/25/19
f 14/20/13 15/22/15 19/27/20
f 15/21/15 16/23/16 19/26/20
f 18/25/19 14/20/13 20/28/21
f 14/20/13 19/27/20 21/29/22
f 22/30/23 19/26/20 16/23/16
f 13/19/18 18/25/19 17/24/17
f 20/28/21 14/20/13 21/29/22
f 21/29/22 19/27/20 22/31/23
f 17/24/17 18/25/19 23/32/24
f 22/30/23 16/23/16 23/32/24
f 16/23/16 17/24/17 23/32/24
f 23/32/24 18/25/19 20/28/21
f 20/28/21 21/29/22 23/33/24
f 21/29/22 22/31/23 23/33/24
s 4
f 25/37/25 36/52/26 26/38/27
f 26/38/27 36/53/26 27/40/28
f 28/41/29 25/37/25 26/38/27
f 27/40/28 36/54/26 29/42/30
f 36/54/26 25/39/25 30/43/31
f 26/38/27 27/40/28 31/44/32
f 36/54/26 30/43/31 29/42/30
f 28/41/29 26/38/27 32/46/33
f 31/44/32 27/40/28 33/47/34
f 32/46/33 26/38/27 31/44/32
f 27/40/28 29/42/30 33/47/34
f 25/39/25 28/45/29 30/43/31
f 28/41/29 32/46/33 35/48/35
f 32/46/33 31/44/32 35/48/35
f 30/43/31 28/45/29 35/50/35
f 35/48/35 31/44/32 33/47/34
f 33/47/34 29/42/30 34/49/36
f 29/42/30 30/43/31 34/49/36
f 30/43/31 35/50/35 34/49/36
f 35/48/35 33/47/34 34/51/36
s 5
f 38/71/37 37/58/38 39/57/39
f 40/59/40 38/56/37 39/57/39
f 37/55/38 38/56/37 41/60/41
f 37/55/38 41/60/41 42/61/42
f 38/56/37 40/59/40 43/62/43
f 37/55/38 42/61/42 44/63/44
f 38/56/37 43/62/43 41/60/41
f 44/63/44 42/61/42 45/65/45
f 40/59/40 39/57/39 47/67/46
f 39/57/39 37/58/38 47/67/46
f 37/58/38 44/64/44 47/67/46
f 41/60/41 46/66/47 42/61/42
f 41/60/41 43/62/43 46/66/47
f 47/67/46 44/64/44 45/68/45
f 43/62/43 40/59/40 48/69/48
f 40/59/40 47/67/46 48/69/48
f 45/65/45 42/61/42 48/70/48
f 42/61/42 46/66/47 48/70/48
f 46/66/47 43/62/43 48/69/48
f 47/67/46 45/68/45 48/69/48
s 6
f 52/77/49 49/72/50 53/78/51
f 49/72/50 50/73/52 53/78/51
f 50/73/52 49/74/50 54/79/53
f 54/79/53 49/74/50 51/75/54
f 51/75/54 49/76/50 52/80/49
f 53/78/51 50/73/52 55/81/55
f 54/79/53 51/75/54 56/82/56
f 50/73/52 54/79/53 55/81/55
f 56/82/56 51/75/54 57/83/57
f 51/75/54 52/80/49 57/83/57
f 52/77/49 53/78/51 58/84/58
f 54/79/53 56/82/56 59/86/59
f 57/83/57 52/80/49 58/85/58
f 58/84/58 53/78/51 59/86/59
f 53/78/51 55/81/55 59/86/59
f 55/81/55 54/79/53 59/86/59
f 59/86/59 56/82/56 57/83/57
f 59/87/59 57/83/57 58/85/58
s 7
f 63/92/60 61/103/61 62/90/62
f 60/88/63 61/89/61 65/94/64
f 65/94/64 61/89/61 66/95/65
f 61/89/61 63/92/60 66/95/65
f 62/90/62 61/104/61 60/91/63
f 60/88/63 65/94/64 64/93/66
f 60/88/63 64/93/66 67/96/67
f 62/90/62 60/91/63 67/97/67
f 63/92/60 62/90/62 68/98/68
f 62/90/62 67/97/67 68/98/68
f 67/96/67 64/93/66 69/99/69
f 66/95/65 63/92/60 68/98/68
f 68/98/68 67/97/67 69/100/69
f 69/99/69 64/93/66 70/101/70
f 64/93/66 65/94/64 70/101/70
f 65/94/64 66/95/65 70/101/70
f 66/95/65 68/98/68 70/101/70
f 68/98/68 69/100/69 70/102/70
s 8
f 73/108/71 72/121/72 71/109/73
f 71/105/73 72/106/72 74/110/74
f 74/110/74 72/107/72 75/111/75
f 72/107/72 73/108/71 76/112/76
f 75/111/75 72/107/72 76/112/76
f 73/108/71 71/109/73 77/113/77
f 77/114/77 71/105/73 78/115/78
f 78/115/78 71/105/73 74/110/74
f 76/112/76 73/108/71 79/116/79
f 73/108/71 77/113/77 79/116/79
f 77/114/77 78/115/78 80/117/80
f 74/110/74 75/111/75 80/118/80
f 76/112/76 79/116/79 80/119/80
f 78/115/78 74/110/74 80/118/80
f 75/111/75 76/112/76 80/118/80
f 79/116/79 77/113/77 80/120/80
s 9
f 82/122/81 81/134/82 83/124/83
f 83/124/83 81/134/82 84/125/84
f 81/135/82 82/123/81 86/127/85
f 81/134/82 85/126/86 84/125/84
f 85/126/86 81/135/82 86/127/85
f 86/127/85 82/123/81 87/129/87
f 82/122/81 83/124/83 87/128/87
f 88/130/88 87/128/87 83/124/83
f 86/127/85 87/129/87 88/132/88
f 84/125/84 85/126/86 89/131/89
f 85/126/86 86/127/85 89/131/89
f 88/130/88 83/124/83 89/133/89
f 83/124/83 84/125/84 89/133/89
f 89/131/89 86/127/85 88/132/88
s 10
f 92/139/90 90/136/91 93/140/92
f 91/137/93 90/136/91 94/141/94
f 94/141/94 90/136/91 92/139/90
f 93/140/92 90/136/91 95/142/95
f 90/152/91 91/138/93 96/143/96
f 95/142/95 90/152/91 96/143/96
f 96/143/96 91/138/93 94/144/94
f 94/141/94 92/139/90 98/146/97
f 98/146/97 92/139/90 97/145/98
f 92/139/90 93/140/92 97/145/98
f 93/140/92 95/142/95 99/147/99
f 97/145/98 93/140/92 99/147/99
f 96/143/96 94/144/94 98/148/97
f 95/142/95 96/143/96 99/147/99
f 97/145/98 99/147/99 100/149/100
f 99/147/99 96/143/96 100/150/100
f 96/143/96 98/148/97 100/150/100
f 98/146/97 97/145/98 100/151/100
