# This file uses centimeters as units for non-parametric coordinates.

mtllib sign.mtl
g default
v -0.075000 0.000000 0.037500
v 0.075000 0.000000 0.037500
v -0.075000 0.250000 0.037500
v 0.075000 0.250000 0.037500
v -0.075000 0.250000 -0.037500
v 0.075000 0.250000 -0.037500
v -0.075000 0.000000 -0.037500
v 0.075000 0.000000 -0.037500
vt 0.375000 0.000000
vt 0.625000 0.000000
vt 0.375000 0.250000
vt 0.625000 0.250000
vt 0.375000 0.500000
vt 0.625000 0.500000
vt 0.375000 0.750000
vt 0.625000 0.750000
vt 0.375000 1.000000
vt 0.625000 1.000000
vt 0.875000 0.000000
vt 0.875000 0.250000
vt 0.125000 0.000000
vt 0.125000 0.250000
vn 0.000000 0.000000 1.000000
vn 0.000000 0.000000 1.000000
vn 0.000000 0.000000 1.000000
vn 0.000000 0.000000 1.000000
vn 0.000000 1.000000 0.000000
vn 0.000000 1.000000 0.000000
vn 0.000000 1.000000 0.000000
vn 0.000000 1.000000 0.000000
vn 0.000000 0.000000 -1.000000
vn 0.000000 0.000000 -1.000000
vn 0.000000 0.000000 -1.000000
vn 0.000000 0.000000 -1.000000
vn 0.000000 -1.000000 0.000000
vn 0.000000 -1.000000 0.000000
vn 0.000000 -1.000000 0.000000
vn 0.000000 -1.000000 0.000000
vn 1.000000 0.000000 0.000000
vn 1.000000 0.000000 0.000000
vn 1.000000 0.000000 0.000000
vn 1.000000 0.000000 0.000000
vn -1.000000 0.000000 0.000000
vn -1.000000 0.000000 0.000000
vn -1.000000 0.000000 0.000000
vn -1.000000 0.000000 0.000000
s 1
g signD
usemtl lambert2SG
f 1/1/1 2/2/2 3/3/3
f 3/3/3 2/2/2 4/4/4
s 2
f 3/3/5 4/4/6 5/5/7
f 5/5/7 4/4/6 6/6/8
s 3
f 5/5/9 6/6/10 7/7/11
f 7/7/11 6/6/10 8/8/12
s 4
f 7/7/13 8/8/14 1/9/15
f 1/9/15 8/8/14 2/10/16
s 5
f 2/2/17 8/11/18 4/4/19
f 4/4/19 8/11/18 6/12/20
s 6
f 7/13/21 1/1/22 5/14/23
f 5/14/23 1/1/22 3/3/24
g default
v -0.325000 0.250000 0.062500
v 0.325000 0.250000 0.062500
v -0.325000 0.650000 0.062500
v 0.325000 0.650000 0.062500
v -0.325000 0.650000 -0.062500
v 0.325000 0.650000 -0.062500
v -0.325000 0.250000 -0.062500
v 0.325000 0.250000 -0.062500
vt 0.399501 0.014223
vt 0.600499 0.014223
vt 0.600499 0.215222
vt 0.399501 0.215222
vt 0.406159 0.214905
vt 0.593841 0.214905
vt 0.593841 0.027223
vt 0.406159 0.027223
vt 0.397425 0.772633
vt 0.602575 0.772633
vt 0.600499 0.014223
vt 0.399501 0.014223
vt 0.399501 0.215222
vt 0.600499 0.215222
vt 0.000000 -0.000000
vt 1.000000 -0.000000
vt 1.000000 1.000000
vt 0.000000 1.000000
vt 0.602575 0.977782
vt 0.397425 0.977782
vt 0.397425 0.977782
vt 0.602575 0.977782
vt 0.602575 0.772633
vt 0.397425 0.772633
vn 0.000000 0.000000 1.000000
vn 0.000000 0.000000 1.000000
vn 0.000000 0.000000 1.000000
vn 0.000000 0.000000 1.000000
vn 0.000000 1.000000 0.000000
vn 0.000000 1.000000 0.000000
vn 0.000000 1.000000 0.000000
vn 0.000000 1.000000 0.000000
vn 0.000000 0.000000 -1.000000
vn 0.000000 0.000000 -1.000000
vn 0.000000 0.000000 -1.000000
vn 0.000000 0.000000 -1.000000
vn 0.000000 -1.000000 0.000000
vn 0.000000 -1.000000 0.000000
vn 0.000000 -1.000000 0.000000
vn 0.000000 -1.000000 0.000000
vn 1.000000 0.000000 0.000000
vn 1.000000 0.000000 0.000000
vn 1.000000 0.000000 0.000000
vn 1.000000 0.000000 0.000000
vn -1.000000 0.000000 0.000000
vn -1.000000 0.000000 0.000000
vn -1.000000 0.000000 0.000000
vn -1.000000 0.000000 0.000000
s 1
g signU
usemtl lambert3SG
f 9/29/25 10/30/26 11/32/27
f 11/32/27 10/30/26 12/31/28
s 2
f 11/23/29 12/24/30 13/34/31
f 13/34/31 12/24/30 14/33/32
s 3
f 13/19/33 14/20/34 15/22/35
f 15/22/35 14/20/34 16/21/36
s 4
f 15/35/37 16/36/38 9/38/39
f 9/38/39 16/36/38 10/37/40
s 5
f 10/15/41 16/16/42 12/18/43
f 12/18/43 16/16/42 14/17/44
s 6
f 15/25/45 9/26/46 13/28/47
f 13/28/47 9/26/46 11/27/48
