# This file uses centimeters as units for non-parametric coordinates.

mtllib rf.mtl
g default
v -0.200406 -0.196902 0.618829
v -0.200406 -0.377675 0.526721
v -0.200406 -0.521138 0.383258
v -0.200406 -0.613246 0.202485
v -0.200406 -0.644985 0.002096
v -0.200406 -0.613246 -0.198293
v -0.200405 -0.521138 -0.379066
v -0.200406 -0.377675 -0.522528
v -0.200406 -0.196902 -0.614637
v -0.200405 0.003487 -0.646375
v -0.200406 0.203875 -0.614637
v -0.200406 0.384648 -0.522528
v -0.200406 0.528111 -0.395228
v -0.200406 0.620219 -0.182130
v -0.200406 0.651958 0.002096
v -0.200405 0.620219 0.202485
v -0.200406 0.528111 0.383258
v -0.200405 0.384648 0.526720
v -0.200406 0.203875 0.618829
v -0.200406 0.003487 0.650567
v 0.231908 -0.196902 0.618829
v 0.231909 -0.377675 0.526721
v 0.231909 -0.521138 0.383258
v 0.231908 -0.613246 0.202485
v 0.231908 -0.644985 0.002096
v 0.231908 -0.613246 -0.198293
v 0.231909 -0.521138 -0.379066
v 0.231908 -0.377675 -0.522528
v 0.231908 -0.196902 -0.614637
v 0.231909 0.003487 -0.646375
v 0.231908 0.203875 -0.614637
v 0.231909 0.384648 -0.522528
v 0.231909 0.528111 -0.395228
v 0.231908 0.620219 -0.182130
v 0.231908 0.651958 0.002096
v 0.231909 0.620219 0.202485
v 0.231908 0.528111 0.383258
v 0.231909 0.384648 0.526720
v 0.231908 0.203875 0.618829
v 0.231908 0.003487 0.650567
v -0.200406 0.003487 0.002096
v 0.231908 0.003487 0.002096
vt 0.648603 0.107966
vt 0.626409 0.064408
vt 0.591842 0.029841
vt 0.548284 0.007647
vt 0.500000 -0.000000
vt 0.451716 0.007647
vt 0.408159 0.029841
vt 0.373591 0.064409
vt 0.351397 0.107966
vt 0.343750 0.156250
vt 0.351397 0.204534
vt 0.373591 0.248091
vt 0.408159 0.282659
vt 0.451716 0.304853
vt 0.500000 0.312500
vt 0.548284 0.304853
vt 0.591841 0.282659
vt 0.626409 0.248091
vt 0.648603 0.204534
vt 0.656250 0.156250
vt 0.281260 2.053804
vt 0.281206 1.898806
vt 0.281153 1.743808
vt 0.281100 1.588809
vt 0.281046 1.433811
vt 0.280993 1.278813
vt 0.280939 1.123815
vt 0.280886 0.968816
vt 0.280833 0.813818
vt 0.280779 0.658820
vt 0.280726 0.503821
vt 0.280673 0.348823
vt 0.280619 0.193825
vt 0.280566 0.038827
vt 0.280512 -0.116172
vt 0.280459 -0.271170
vt 0.280406 -0.426168
vt 0.280352 -0.581166
vt 0.280299 -0.736165
vt 0.280246 -0.891163
vt 0.280192 -1.046161
vt 0.680847 2.046162
vt 0.680793 1.891163
vt 0.680740 1.736165
vt 0.680686 1.581167
vt 0.680633 1.426168
vt 0.680580 1.271170
vt 0.680526 1.116172
vt 0.680473 0.961173
vt 0.680420 0.806175
vt 0.680366 0.651177
vt 0.680313 0.496179
vt 0.680259 0.341180
vt 0.680206 0.186182
vt 0.680153 0.031184
vt 0.680099 -0.123815
vt 0.680046 -0.278813
vt 0.679992 -0.433811
vt 0.679939 -0.588809
vt 0.679886 -0.743808
vt 0.679832 -0.898806
vt 0.679779 -1.053804
vt 0.898881 0.367450
vt 0.839308 0.250532
vt 0.746522 0.157746
vt 0.629604 0.098173
vt 0.500000 0.077646
vt 0.370396 0.098173
vt 0.253478 0.157746
vt 0.160692 0.250533
vt 0.101119 0.367450
vt 0.080592 0.497054
vt 0.101119 0.626658
vt 0.160692 0.743576
vt 0.253478 0.836362
vt 0.370396 0.895935
vt 0.500000 0.916462
vt 0.629604 0.895935
vt 0.746522 0.836362
vt 0.839308 0.743576
vt 0.898881 0.626658
vt 0.919408 0.497054
vt 0.500000 0.156250
vt 0.500000 0.497054
vn 0.000000 -0.309016 0.951057
vn 0.000000 -0.587786 0.809017
vn 0.000000 -0.587786 0.809017
vn 0.000000 -0.309016 0.951057
vn 0.000000 -0.809017 0.587785
vn 0.000000 -0.809017 0.587785
vn 0.000000 -0.951057 0.309017
vn 0.000000 -0.951056 0.309017
vn -0.000000 -1.000000 -0.000000
vn -0.000000 -1.000000 0.000000
vn -0.000000 -0.951057 -0.309017
vn -0.000000 -0.951056 -0.309017
vn 0.000000 -0.809017 -0.587785
vn 0.000000 -0.809017 -0.587785
vn 0.000000 -0.587785 -0.809017
vn 0.000000 -0.587785 -0.809017
vn -0.000000 -0.309017 -0.951057
vn -0.000000 -0.309017 -0.951057
vn -0.000000 0.000000 -1.000000
vn -0.000000 -0.000000 -1.000000
vn 0.000000 0.309017 -0.951057
vn 0.000000 0.309017 -0.951057
vn 0.000000 0.560437 -0.828197
vn 0.000000 0.560437 -0.828197
vn 0.000000 0.822293 -0.569064
vn 0.000000 0.822293 -0.569064
vn 0.000000 0.954697 -0.297581
vn 0.000000 0.954696 -0.297581
vn 0.000000 1.000000 0.000000
vn 0.000000 1.000000 0.000000
vn 0.000000 0.951057 0.309017
vn 0.000000 0.951057 0.309017
vn 0.000000 0.809017 0.587785
vn 0.000000 0.809017 0.587785
vn 0.000000 0.587785 0.809017
vn 0.000000 0.587785 0.809017
vn 0.000000 0.309017 0.951057
vn 0.000000 0.309017 0.951056
vn 0.000000 0.000001 1.000000
vn 0.000000 0.000001 1.000000
vn -1.000000 0.000000 0.000000
vn -1.000000 0.000000 0.000000
vn -1.000000 0.000000 -0.000000
vn -1.000000 0.000000 0.000000
vn -1.000000 -0.000000 0.000000
vn -1.000000 -0.000000 0.000000
vn -1.000000 0.000001 -0.000001
vn -1.000000 -0.000001 -0.000000
vn -1.000000 -0.000002 0.000001
vn -1.000000 0.000002 -0.000000
vn -1.000000 0.000000 -0.000001
vn -1.000000 -0.000002 -0.000000
vn -1.000000 -0.000001 0.000000
vn -1.000000 -0.000000 0.000000
vn -1.000000 0.000000 0.000000
vn -1.000000 -0.000000 0.000001
vn -1.000000 0.000001 0.000000
vn -1.000000 -0.000001 -0.000000
vn -1.000000 0.000002 0.000001
vn -1.000000 0.000004 -0.000000
vn -1.000000 0.000000 0.000000
vn 1.000000 0.000002 0.000000
vn 1.000000 0.000002 0.000000
vn 1.000000 -0.000000 0.000000
vn 1.000000 -0.000001 -0.000001
vn 1.000000 -0.000001 -0.000001
vn 1.000000 -0.000000 0.000000
vn 1.000000 -0.000001 0.000001
vn 1.000000 0.000002 0.000000
vn 1.000000 0.000003 -0.000001
vn 1.000000 -0.000004 0.000000
vn 1.000000 0.000000 0.000001
vn 1.000000 0.000002 0.000000
vn 1.000000 -0.000002 -0.000000
vn 1.000000 0.000001 0.000001
vn 1.000000 0.000001 0.000001
vn 1.000000 -0.000000 -0.000001
vn 1.000000 -0.000002 -0.000000
vn 1.000000 0.000000 0.000000
vn 1.000000 0.000000 -0.000001
vn 1.000000 -0.000004 0.000000
vn 1.000000 -0.000002 0.000000
s 1
g pasted__pasted__pCylinder1 pasted__group14 group
usemtl pasted__pasted__lambert5SG
f 1/21/1 2/22/2 22/43/3 21/42/4
f 2/22/2 3/23/5 23/44/6 22/43/3
f 3/23/5 4/24/7 24/45/8 23/44/6
f 4/24/7 5/25/9 25/46/10 24/45/8
f 5/25/9 6/26/11 26/47/12 25/46/10
f 6/26/11 7/27/13 27/48/14 26/47/12
f 7/27/13 8/28/15 28/49/16 27/48/14
f 8/28/15 9/29/17 29/50/18 28/49/16
f 9/29/17 10/30/19 30/51/20 29/50/18
f 10/30/19 11/31/21 31/52/22 30/51/20
f 11/31/21 12/32/23 32/53/24 31/52/22
f 12/32/23 13/33/25 33/54/26 32/53/24
f 13/33/25 14/34/27 34/55/28 33/54/26
f 14/34/27 15/35/29 35/56/30 34/55/28
f 15/35/29 16/36/31 36/57/32 35/56/30
f 16/36/31 17/37/33 37/58/34 36/57/32
f 17/37/33 18/38/35 38/59/36 37/58/34
f 18/38/35 19/39/37 39/60/38 38/59/36
f 19/39/37 20/40/39 40/61/40 39/60/38
f 20/40/39 1/41/1 21/62/4 40/61/40
s 2
usemtl initialShadingGroup
f 2/2/41 1/1/42 41/83/43
f 3/3/44 2/2/41 41/83/43
f 4/4/45 3/3/44 41/83/43
f 5/5/46 4/4/45 41/83/43
f 6/6/47 5/5/46 41/83/43
f 7/7/48 6/6/47 41/83/43
f 8/8/49 7/7/48 41/83/43
f 9/9/50 8/8/49 41/83/43
f 10/10/51 9/9/50 41/83/43
f 11/11/52 10/10/51 41/83/43
f 12/12/53 11/11/52 41/83/43
f 13/13/54 12/12/53 41/83/43
f 14/14/55 13/13/54 41/83/43
f 15/15/56 14/14/55 41/83/43
f 16/16/57 15/15/56 41/83/43
f 17/17/58 16/16/57 41/83/43
f 18/18/59 17/17/58 41/83/43
f 19/19/60 18/18/59 41/83/43
f 20/20/61 19/19/60 41/83/43
f 1/1/42 20/20/61 41/83/43
s 3
usemtl pasted__pasted__lambert6SG
f 21/81/62 22/80/63 42/84/64
f 22/80/63 23/79/65 42/84/64
f 23/79/65 24/78/66 42/84/64
f 24/78/66 25/77/67 42/84/64
f 25/77/67 26/76/68 42/84/64
f 26/76/68 27/75/69 42/84/64
f 27/75/69 28/74/70 42/84/64
f 28/74/70 29/73/71 42/84/64
f 29/73/71 30/72/72 42/84/64
f 30/72/72 31/71/73 42/84/64
f 31/71/73 32/70/74 42/84/64
f 32/70/74 33/69/75 42/84/64
f 33/69/75 34/68/76 42/84/64
f 34/68/76 35/67/77 42/84/64
f 35/67/77 36/66/78 42/84/64
f 36/66/78 37/65/79 42/84/64
f 37/65/79 38/64/80 42/84/64
f 38/64/80 39/63/81 42/84/64
f 39/63/81 40/82/82 42/84/64
f 40/82/82 21/81/62 42/84/64
